<?xml version="1.0" encoding="utf-8"?>
<!-- Generator: Adobe Illustrator 24.3.0, SVG Export Plug-In . SVG Version: 6.00 Build 0)  -->
<svg version="1.1" id="Capa_1" xmlns="http://www.w3.org/2000/svg" xmlns:xlink="http://www.w3.org/1999/xlink" x="0px" y="0px"
	 viewBox="0 0 399.4 399.4" style="enable-background:new 0 0 399.4 399.4;" xml:space="preserve">
<style type="text/css">
	.st0{fill:#A8A9AA;}
</style>
<g>
	<path class="st0" d="M340.9,58.5C303.2,20.8,253,0,199.7,0C146.4,0,96.2,20.8,58.5,58.5C20.8,96.2,0,146.4,0,199.7
		C0,253,20.8,303.2,58.5,340.9c37.7,37.7,87.9,58.5,141.2,58.5c53.3,0,103.5-20.8,141.2-58.5c37.7-37.7,58.5-87.9,58.5-141.2
		C399.4,146.4,378.6,96.2,340.9,58.5z M199.7,77.5c67.4,0,122.2,54.8,122.2,122.2s-54.8,122.2-122.2,122.2S77.5,267.1,77.5,199.7
		S132.3,77.5,199.7,77.5z M328.1,328.1c-34.3,34.3-79.9,53.2-128.4,53.2c-48.5,0-94.1-18.9-128.4-53.2
		C37,293.8,18.2,248.2,18.2,199.7h41.1c0,77.4,63,140.4,140.4,140.4c77.4,0,140.4-63,140.4-140.4s-63-140.4-140.4-140.4
		c-4.6,0-9.1,0.2-13.6,0.7V18.7c4.5-0.3,9-0.5,13.6-0.5c48.5,0,94.1,18.9,128.4,53.2c34.3,34.3,53.2,79.9,53.2,128.4
		C381.2,248.2,362.4,293.8,328.1,328.1z"/>
</g>
</svg>
