<?xml version="1.0" encoding="utf-8"?>
<!-- Generator: Adobe Illustrator 24.3.0, SVG Export Plug-In . SVG Version: 6.00 Build 0)  -->
<svg version="1.1" id="Layer_1" xmlns="http://www.w3.org/2000/svg" xmlns:xlink="http://www.w3.org/1999/xlink" x="0px" y="0px"
	 viewBox="0 0 300 35.1" style="enable-background:new 0 0 300 35.1;" xml:space="preserve">
<style type="text/css">
	.st0{fill-rule:evenodd;clip-rule:evenodd;fill:#FF7514;}
	.st1{fill-rule:evenodd;clip-rule:evenodd;fill:#002F55;}
</style>
<g>
	<path class="st0" d="M103.9,29.7h5.4v5.4h-5.4V29.7L103.9,29.7z M117.4,35.1h14l-10.8-13.2h-14C110.2,26.3,113.8,30.7,117.4,35.1
		L117.4,35.1z"/>
	<path class="st1" d="M300,35.1h-10.8V24.3h-2.7l-6.4,10.8h-12.5l7.7-13.1c-3-2.2-5-5.8-5-9.8c0-6.7,5.5-12.1,12.1-12.1h6.7H300
		C300,11.7,300,23.4,300,35.1L300,35.1z M10.8,13.2h6.6c6,0,11,4.9,11,11c0,6-4.9,11-11,11h-6.6H0.2h0h0h0h0h0h0h0h0h0h0h0H0v0V0
		h25.6v10.8H10.8V13.2L10.8,13.2z M10.8,21.9h4.6c1.2,0,2.2,1,2.2,2.2c0,1.2-1,2.2-2.2,2.2h-4.6V21.9L10.8,21.9z M31,0h24.3v10.8
		H41.8v2.4h10.8v8.8H41.8v2.4h13.5v10.8H31V0L31,0z M90.4,0v35.1H79.6V10.8h-5.4v11.1c0,3.6-1.5,6.9-3.9,9.3
		c-2.4,2.4-5.7,3.9-9.3,3.9h-3V24.3h3c1.3,0,2.4-1.1,2.4-2.4V0C72.4,0,81.4,0,90.4,0L90.4,0z M120.6,21.9l-4.6-5.6L129.4,0h-14
		l-8.9,10.8V0H95.8v35.1l10.8-13.2H120.6L120.6,21.9z M134,35.1h10.8V24.3h5.4c6.7,0,12.1-5.5,12.1-12.1c0-6.7-5.5-12.1-12.1-12.1
		h-5.4H134C134,11.7,134,23.4,134,35.1L134,35.1z M144.8,8.8h3.4c1.9,0,3.4,1.5,3.4,3.4c0,1.9-1.5,3.4-3.4,3.4h-3.4V8.8L144.8,8.8z
		 M181.3,0c9.7,0,17.5,7.9,17.5,17.5c0,9.7-7.9,17.5-17.5,17.5c-9.7,0-17.5-7.9-17.5-17.5C163.7,7.9,171.6,0,181.3,0L181.3,0z
		 M181.3,24.3c3.7,0,6.7-3,6.7-6.7s-3-6.7-6.7-6.7c-3.7,0-6.7,3-6.7,6.7S177.5,24.3,181.3,24.3L181.3,24.3z M224.5,17.1
		c3.1,1.5,5.3,4.8,5.3,8.5c0,5.2-4.3,9.4-9.4,9.4h-8.1h-10.8V0h10.8h6.7c5.2,0,9.4,4.3,9.4,9.4C228.5,12.5,227,15.4,224.5,17.1
		L224.5,17.1z M212.3,21.9h4.6c1.2,0,2.2,1,2.2,2.2c0,1.2-1,2.2-2.2,2.2h-4.6V21.9L212.3,21.9z M212.3,8.8h3.2c1.2,0,2.2,1,2.2,2.2
		c0,1.2-1,2.2-2.2,2.2h-3.2V8.8L212.3,8.8z M264.9,0v35.1h-10.8V10.8h-5.4v11.1c0,3.6-1.5,6.9-3.9,9.3c-2.4,2.4-5.7,3.9-9.3,3.9h-3
		V24.3h3c1.3,0,2.4-1.1,2.4-2.4V0C246.9,0,255.9,0,264.9,0L264.9,0z M289.2,8.8h-4.7c-1.9,0-3.4,1.5-3.4,3.4c0,1.9,1.5,3.4,3.4,3.4
		h4.7V8.8L289.2,8.8z"/>
</g>
</svg>
